<svg width="115" height="60" viewBox="0 0 115 60" fill="none" xmlns="http://www.w3.org/2000/svg">
<path d="M104.843 25.696C107.195 25.696 109.067 26.464 110.459 28C111.875 29.512 112.583 31.6 112.583 34.264V46H106.463V35.092C106.463 33.748 106.115 32.704 105.419 31.96C104.723 31.216 103.787 30.844 102.611 30.844C101.435 30.844 100.499 31.216 99.8031 31.96C99.1071 32.704 98.7591 33.748 98.7591 35.092V46H92.6031V25.912H98.7591V28.576C99.3831 27.688 100.223 26.992 101.279 26.488C102.335 25.96 103.523 25.696 104.843 25.696Z" fill="#168FFF"/>
<path d="M87.7902 10.3158C88.9016 12.6993 87.2159 15.8378 84.0249 17.3257L82.0125 13.01C80.901 10.6264 82.5868 7.48798 85.7777 6.00002L87.7902 10.3158Z" fill="#FFC700"/>
<path d="M82 22C85.4263 22 88.2038 24.0747 88.2038 26.634V46.1356C84.7775 46.1356 82 44.0609 82 41.5016V22Z" fill="#168FFF"/>
<path d="M72 2.31702C72 1.03737 73.3888 0 75.1019 0C76.815 0 78.2038 1.03737 78.2038 2.31702V45.8577C74.7775 45.8577 72 43.783 72 41.2237V2.31702Z" fill="#168FFF"/>
<path d="M14.7033 46L8.58331 37.576V46H2.42731V19.36H8.58331V34.084L14.6673 25.912H22.2633L13.9113 35.992L22.3353 46H14.7033ZM33.8252 46.288C31.8572 46.288 30.0812 45.868 28.4972 45.028C26.9372 44.188 25.7012 42.988 24.7892 41.428C23.9012 39.868 23.4572 38.044 23.4572 35.956C23.4572 33.892 23.9132 32.08 24.8252 30.52C25.7372 28.936 26.9852 27.724 28.5692 26.884C30.1532 26.044 31.9292 25.624 33.8972 25.624C35.8652 25.624 37.6412 26.044 39.2252 26.884C40.8092 27.724 42.0572 28.936 42.9692 30.52C43.8812 32.08 44.3372 33.892 44.3372 35.956C44.3372 38.02 43.8692 39.844 42.9332 41.428C42.0212 42.988 40.7612 44.188 39.1532 45.028C37.5692 45.868 35.7932 46.288 33.8252 46.288ZM33.8252 40.96C35.0012 40.96 35.9972 40.528 36.8132 39.664C37.6532 38.8 38.0732 37.564 38.0732 35.956C38.0732 34.348 37.6652 33.112 36.8492 32.248C36.0572 31.384 35.0732 30.952 33.8972 30.952C32.6972 30.952 31.7012 31.384 30.9092 32.248C30.1172 33.088 29.7212 34.324 29.7212 35.956C29.7212 37.564 30.1052 38.8 30.8732 39.664C31.6652 40.528 32.6492 40.96 33.8252 40.96ZM53.7591 28.756C54.3591 27.82 55.1871 27.064 56.2431 26.488C57.2991 25.912 58.5351 25.624 59.9511 25.624C61.6071 25.624 63.1071 26.044 64.4511 26.884C65.7951 27.724 66.8511 28.924 67.6191 30.484C68.4111 32.044 68.8071 33.856 68.8071 35.92C68.8071 37.984 68.4111 39.808 67.6191 41.392C66.8511 42.952 65.7951 44.164 64.4511 45.028C63.1071 45.868 61.6071 46.288 59.9511 46.288C58.5591 46.288 57.3231 46 56.2431 45.424C55.1871 44.848 54.3591 44.104 53.7591 43.192V55.576H47.6031V25.912H53.7591V28.756ZM62.5431 35.92C62.5431 34.384 62.1111 33.184 61.2471 32.32C60.4071 31.432 59.3631 30.988 58.1151 30.988C56.8911 30.988 55.8471 31.432 54.9831 32.32C54.1431 33.208 53.7231 34.42 53.7231 35.956C53.7231 37.492 54.1431 38.704 54.9831 39.592C55.8471 40.48 56.8911 40.924 58.1151 40.924C59.3391 40.924 60.3831 40.48 61.2471 39.592C62.1111 38.68 62.5431 37.456 62.5431 35.92Z" fill="#168FFF"/>
</svg>
